<mxfile host="app.diagrams.net" modified="2023-05-12T02:26:49.850Z" agent="Mozilla/5.0 (Windows NT 10.0; Win64; x64) AppleWebKit/537.36 (KHTML, like Gecko) Chrome/113.0.0.0 Safari/537.36 Edg/113.0.1774.35" etag="-BweZtRLH0F1jOAay833" version="21.2.9" type="github">
  <diagram id="C5RBs43oDa-KdzZeNtuy" name="Page-1">
    <mxGraphModel dx="739" dy="470" grid="1" gridSize="10" guides="1" tooltips="1" connect="1" arrows="1" fold="1" page="1" pageScale="1" pageWidth="827" pageHeight="1169" math="0" shadow="0">
      <root>
        <mxCell id="WIyWlLk6GJQsqaUBKTNV-0" />
        <mxCell id="WIyWlLk6GJQsqaUBKTNV-1" parent="WIyWlLk6GJQsqaUBKTNV-0" />
        <mxCell id="n2nxHzEbUFdmFaFhW0tO-0" style="edgeStyle=orthogonalEdgeStyle;rounded=0;orthogonalLoop=1;jettySize=auto;html=1;exitX=0;exitY=0.5;exitDx=0;exitDy=0;entryX=0.5;entryY=0;entryDx=0;entryDy=0;" edge="1" parent="WIyWlLk6GJQsqaUBKTNV-1" source="n2nxHzEbUFdmFaFhW0tO-8" target="n2nxHzEbUFdmFaFhW0tO-18">
          <mxGeometry relative="1" as="geometry" />
        </mxCell>
        <mxCell id="n2nxHzEbUFdmFaFhW0tO-1" value="OA" style="edgeLabel;html=1;align=center;verticalAlign=middle;resizable=0;points=[];" vertex="1" connectable="0" parent="n2nxHzEbUFdmFaFhW0tO-0">
          <mxGeometry x="0.2795" y="1" relative="1" as="geometry">
            <mxPoint x="-1" as="offset" />
          </mxGeometry>
        </mxCell>
        <mxCell id="n2nxHzEbUFdmFaFhW0tO-2" style="edgeStyle=orthogonalEdgeStyle;rounded=0;orthogonalLoop=1;jettySize=auto;html=1;exitX=1;exitY=0.5;exitDx=0;exitDy=0;entryX=0.5;entryY=0;entryDx=0;entryDy=0;" edge="1" parent="WIyWlLk6GJQsqaUBKTNV-1" source="n2nxHzEbUFdmFaFhW0tO-8" target="n2nxHzEbUFdmFaFhW0tO-20">
          <mxGeometry relative="1" as="geometry" />
        </mxCell>
        <mxCell id="n2nxHzEbUFdmFaFhW0tO-3" value="新峰" style="edgeLabel;html=1;align=center;verticalAlign=middle;resizable=0;points=[];" vertex="1" connectable="0" parent="n2nxHzEbUFdmFaFhW0tO-2">
          <mxGeometry x="0.2937" y="-4" relative="1" as="geometry">
            <mxPoint as="offset" />
          </mxGeometry>
        </mxCell>
        <mxCell id="n2nxHzEbUFdmFaFhW0tO-4" style="edgeStyle=orthogonalEdgeStyle;rounded=0;orthogonalLoop=1;jettySize=auto;html=1;exitX=1;exitY=0.5;exitDx=0;exitDy=0;entryX=0.5;entryY=0;entryDx=0;entryDy=0;" edge="1" parent="WIyWlLk6GJQsqaUBKTNV-1" source="n2nxHzEbUFdmFaFhW0tO-8" target="n2nxHzEbUFdmFaFhW0tO-22">
          <mxGeometry relative="1" as="geometry" />
        </mxCell>
        <mxCell id="n2nxHzEbUFdmFaFhW0tO-5" value="HR" style="edgeLabel;html=1;align=center;verticalAlign=middle;resizable=0;points=[];" vertex="1" connectable="0" parent="n2nxHzEbUFdmFaFhW0tO-4">
          <mxGeometry x="0.6739" y="-1" relative="1" as="geometry">
            <mxPoint as="offset" />
          </mxGeometry>
        </mxCell>
        <mxCell id="n2nxHzEbUFdmFaFhW0tO-6" style="edgeStyle=orthogonalEdgeStyle;rounded=0;orthogonalLoop=1;jettySize=auto;html=1;exitX=0;exitY=0.5;exitDx=0;exitDy=0;entryX=0.5;entryY=0;entryDx=0;entryDy=0;" edge="1" parent="WIyWlLk6GJQsqaUBKTNV-1" source="n2nxHzEbUFdmFaFhW0tO-8" target="n2nxHzEbUFdmFaFhW0tO-15">
          <mxGeometry relative="1" as="geometry" />
        </mxCell>
        <mxCell id="n2nxHzEbUFdmFaFhW0tO-7" value="ERP" style="edgeLabel;html=1;align=center;verticalAlign=middle;resizable=0;points=[];" vertex="1" connectable="0" parent="n2nxHzEbUFdmFaFhW0tO-6">
          <mxGeometry x="0.6448" y="-3" relative="1" as="geometry">
            <mxPoint x="3" y="11" as="offset" />
          </mxGeometry>
        </mxCell>
        <mxCell id="n2nxHzEbUFdmFaFhW0tO-8" value="系统类别" style="rhombus;whiteSpace=wrap;html=1;shadow=0;fontFamily=Helvetica;fontSize=12;align=center;strokeWidth=1;spacing=6;spacingTop=-4;" vertex="1" parent="WIyWlLk6GJQsqaUBKTNV-1">
          <mxGeometry x="349" y="160" width="100" height="80" as="geometry" />
        </mxCell>
        <mxCell id="n2nxHzEbUFdmFaFhW0tO-9" style="edgeStyle=orthogonalEdgeStyle;rounded=0;orthogonalLoop=1;jettySize=auto;html=1;exitX=0.5;exitY=1;exitDx=0;exitDy=0;" edge="1" parent="WIyWlLk6GJQsqaUBKTNV-1" source="n2nxHzEbUFdmFaFhW0tO-10" target="n2nxHzEbUFdmFaFhW0tO-8">
          <mxGeometry relative="1" as="geometry" />
        </mxCell>
        <mxCell id="n2nxHzEbUFdmFaFhW0tO-10" value="开始" style="ellipse;whiteSpace=wrap;html=1;aspect=fixed;fillColor=#dae8fc;strokeColor=#6c8ebf;" vertex="1" parent="WIyWlLk6GJQsqaUBKTNV-1">
          <mxGeometry x="374" y="60" width="50" height="50" as="geometry" />
        </mxCell>
        <mxCell id="n2nxHzEbUFdmFaFhW0tO-11" value="结束" style="ellipse;whiteSpace=wrap;html=1;aspect=fixed;fillColor=#d5e8d4;strokeColor=#82b366;" vertex="1" parent="WIyWlLk6GJQsqaUBKTNV-1">
          <mxGeometry x="374" y="500" width="50" height="50" as="geometry" />
        </mxCell>
        <mxCell id="n2nxHzEbUFdmFaFhW0tO-12" style="edgeStyle=orthogonalEdgeStyle;rounded=0;orthogonalLoop=1;jettySize=auto;html=1;exitX=0.5;exitY=1;exitDx=0;exitDy=0;entryX=0.5;entryY=0;entryDx=0;entryDy=0;" edge="1" parent="WIyWlLk6GJQsqaUBKTNV-1" source="n2nxHzEbUFdmFaFhW0tO-13" target="n2nxHzEbUFdmFaFhW0tO-24">
          <mxGeometry relative="1" as="geometry" />
        </mxCell>
        <mxCell id="n2nxHzEbUFdmFaFhW0tO-13" value="直属领导确认" style="rounded=1;whiteSpace=wrap;html=1;fontSize=12;glass=0;strokeWidth=1;shadow=0;" vertex="1" parent="WIyWlLk6GJQsqaUBKTNV-1">
          <mxGeometry x="339" y="310" width="120" height="40" as="geometry" />
        </mxCell>
        <mxCell id="n2nxHzEbUFdmFaFhW0tO-14" style="edgeStyle=orthogonalEdgeStyle;rounded=0;orthogonalLoop=1;jettySize=auto;html=1;exitX=0.5;exitY=1;exitDx=0;exitDy=0;entryX=0;entryY=0.5;entryDx=0;entryDy=0;" edge="1" parent="WIyWlLk6GJQsqaUBKTNV-1" source="n2nxHzEbUFdmFaFhW0tO-15" target="n2nxHzEbUFdmFaFhW0tO-13">
          <mxGeometry relative="1" as="geometry" />
        </mxCell>
        <mxCell id="n2nxHzEbUFdmFaFhW0tO-15" value="方案" style="rounded=1;whiteSpace=wrap;html=1;fontSize=12;glass=0;strokeWidth=1;shadow=0;" vertex="1" parent="WIyWlLk6GJQsqaUBKTNV-1">
          <mxGeometry x="110" y="250" width="120" height="40" as="geometry" />
        </mxCell>
        <mxCell id="n2nxHzEbUFdmFaFhW0tO-16" value="&lt;mxGraphModel&gt;&lt;root&gt;&lt;mxCell id=“0”/&gt;&lt;mxCell id=“1” parent=“0”/&gt;&lt;mxCell id=“2” value=“直线领导” style=“rounded=1;whiteSpace=wrap;html=1;fontSize=12;glass=0;strokeWidth=1;shadow=0;” vertex=“1” parent=“1”&gt;&lt;mxGeometry x=“160” y=“80” width=“120” height=“40” as=“geometry”/&gt;&lt;/mxCell&gt;&lt;/root&gt;&lt;/mxGraphModel&gt;" style="text;whiteSpace=wrap;html=1;" vertex="1" parent="WIyWlLk6GJQsqaUBKTNV-1">
          <mxGeometry x="585" y="260" width="60" height="50" as="geometry" />
        </mxCell>
        <mxCell id="n2nxHzEbUFdmFaFhW0tO-17" style="edgeStyle=orthogonalEdgeStyle;rounded=0;orthogonalLoop=1;jettySize=auto;html=1;exitX=0.5;exitY=1;exitDx=0;exitDy=0;entryX=0;entryY=0.5;entryDx=0;entryDy=0;" edge="1" parent="WIyWlLk6GJQsqaUBKTNV-1" source="n2nxHzEbUFdmFaFhW0tO-18" target="n2nxHzEbUFdmFaFhW0tO-13">
          <mxGeometry relative="1" as="geometry" />
        </mxCell>
        <mxCell id="n2nxHzEbUFdmFaFhW0tO-18" value="方案" style="rounded=1;whiteSpace=wrap;html=1;fontSize=12;glass=0;strokeWidth=1;shadow=0;" vertex="1" parent="WIyWlLk6GJQsqaUBKTNV-1">
          <mxGeometry x="240" y="250" width="120" height="40" as="geometry" />
        </mxCell>
        <mxCell id="n2nxHzEbUFdmFaFhW0tO-19" style="edgeStyle=orthogonalEdgeStyle;rounded=0;orthogonalLoop=1;jettySize=auto;html=1;exitX=0.5;exitY=1;exitDx=0;exitDy=0;entryX=1;entryY=0.5;entryDx=0;entryDy=0;" edge="1" parent="WIyWlLk6GJQsqaUBKTNV-1" source="n2nxHzEbUFdmFaFhW0tO-20" target="n2nxHzEbUFdmFaFhW0tO-13">
          <mxGeometry relative="1" as="geometry" />
        </mxCell>
        <mxCell id="n2nxHzEbUFdmFaFhW0tO-20" value="方案" style="rounded=1;whiteSpace=wrap;html=1;fontSize=12;glass=0;strokeWidth=1;shadow=0;" vertex="1" parent="WIyWlLk6GJQsqaUBKTNV-1">
          <mxGeometry x="440" y="250" width="120" height="40" as="geometry" />
        </mxCell>
        <mxCell id="n2nxHzEbUFdmFaFhW0tO-21" style="edgeStyle=orthogonalEdgeStyle;rounded=0;orthogonalLoop=1;jettySize=auto;html=1;exitX=0.5;exitY=1;exitDx=0;exitDy=0;entryX=1;entryY=0.5;entryDx=0;entryDy=0;" edge="1" parent="WIyWlLk6GJQsqaUBKTNV-1" source="n2nxHzEbUFdmFaFhW0tO-22" target="n2nxHzEbUFdmFaFhW0tO-13">
          <mxGeometry relative="1" as="geometry" />
        </mxCell>
        <mxCell id="n2nxHzEbUFdmFaFhW0tO-22" value="方案" style="rounded=1;whiteSpace=wrap;html=1;fontSize=12;glass=0;strokeWidth=1;shadow=0;" vertex="1" parent="WIyWlLk6GJQsqaUBKTNV-1">
          <mxGeometry x="570" y="250" width="120" height="40" as="geometry" />
        </mxCell>
        <mxCell id="n2nxHzEbUFdmFaFhW0tO-23" style="edgeStyle=orthogonalEdgeStyle;rounded=0;orthogonalLoop=1;jettySize=auto;html=1;exitX=0.5;exitY=1;exitDx=0;exitDy=0;" edge="1" parent="WIyWlLk6GJQsqaUBKTNV-1" source="n2nxHzEbUFdmFaFhW0tO-24" target="n2nxHzEbUFdmFaFhW0tO-26">
          <mxGeometry relative="1" as="geometry" />
        </mxCell>
        <mxCell id="n2nxHzEbUFdmFaFhW0tO-24" value="实施" style="rounded=1;whiteSpace=wrap;html=1;fontSize=12;glass=0;strokeWidth=1;shadow=0;" vertex="1" parent="WIyWlLk6GJQsqaUBKTNV-1">
          <mxGeometry x="339" y="370" width="120" height="40" as="geometry" />
        </mxCell>
        <mxCell id="n2nxHzEbUFdmFaFhW0tO-25" style="edgeStyle=orthogonalEdgeStyle;rounded=0;orthogonalLoop=1;jettySize=auto;html=1;exitX=0.5;exitY=1;exitDx=0;exitDy=0;entryX=0.5;entryY=0;entryDx=0;entryDy=0;" edge="1" parent="WIyWlLk6GJQsqaUBKTNV-1" source="n2nxHzEbUFdmFaFhW0tO-26" target="n2nxHzEbUFdmFaFhW0tO-11">
          <mxGeometry relative="1" as="geometry" />
        </mxCell>
        <mxCell id="n2nxHzEbUFdmFaFhW0tO-26" value="申请人确认" style="rounded=1;whiteSpace=wrap;html=1;fontSize=12;glass=0;strokeWidth=1;shadow=0;" vertex="1" parent="WIyWlLk6GJQsqaUBKTNV-1">
          <mxGeometry x="339" y="430" width="120" height="40" as="geometry" />
        </mxCell>
      </root>
    </mxGraphModel>
  </diagram>
</mxfile>
